<svg xmlns="http://www.w3.org/2000/svg" width="53" height="53"><style/><path id="gadget" d="M52.98 30.31v-6.65l-5.56-.44c-.2-1.1-.48-2.16-.85-3.19l4.59-3.16-3.32-5.76-5.04 2.39c-.72-.83-1.5-1.61-2.33-2.33l2.39-5.03-5.76-3.33-3.16 4.59c-1.03-.37-2.09-.65-3.19-.85L30.31.99h-6.66l-.44 5.56c-1.1.2-2.16.48-3.19.85l-3.16-4.59-5.76 3.33 2.39 5.03c-.83.72-1.61 1.5-2.33 2.33l-5.03-2.39-3.33 5.76 4.59 3.16c-.37 1.03-.65 2.09-.85 3.19l-5.56.44v6.65l5.56.45c.2 1.09.48 2.16.85 3.19L2.8 37.11l3.33 5.76 5.03-2.39c.72.83 1.5 1.61 2.34 2.33l-2.4 5.03 5.76 3.33 3.16-4.59c1.03.37 2.1.65 3.19.85l.44 5.56h6.66l.44-5.56c1.1-.2 2.16-.48 3.19-.85l3.16 4.59 5.76-3.33-2.39-5.03c.83-.72 1.61-1.5 2.33-2.34l5.04 2.4 3.32-5.76-4.59-3.16c.37-1.03.65-2.1.85-3.19l5.56-.45zm-26 9.68c-7.18 0-13-5.82-13-13s5.82-13 13-13 13 5.82 13 13-5.82 13-13 13z" fill="#2f62f1"/></svg>