<svg xmlns="http://www.w3.org/2000/svg" viewBox="0 0 53 53" width="53" height="53">
	<style>
		tspan { white-space:pre }
		.shp0 { fill: #2f62f1 } 
	</style>
	<path id="gadget" class="shp0" d="M52.98 30.31L52.98 23.66L47.42 23.22C47.22 22.12 46.94 21.06 46.57 20.03L51.16 16.87L47.84 11.11L42.8 13.5C42.08 12.67 41.3 11.89 40.47 11.17L42.86 6.14L37.1 2.81L33.94 7.4C32.91 7.03 31.85 6.75 30.75 6.55L30.31 0.99L23.65 0.99L23.21 6.55C22.11 6.75 21.05 7.03 20.02 7.4L16.86 2.81L11.1 6.14L13.49 11.17C12.66 11.89 11.88 12.67 11.16 13.5L6.13 11.11L2.8 16.87L7.39 20.03C7.02 21.06 6.74 22.12 6.54 23.22L0.98 23.66L0.98 30.31L6.54 30.76C6.74 31.85 7.02 32.92 7.39 33.95L2.8 37.11L6.13 42.87L11.16 40.48C11.88 41.31 12.66 42.09 13.5 42.81L11.1 47.84L16.86 51.17L20.02 46.58C21.05 46.95 22.12 47.23 23.21 47.43L23.65 52.99L30.31 52.99L30.75 47.43C31.85 47.23 32.91 46.95 33.94 46.58L37.1 51.17L42.86 47.84L40.47 42.81C41.3 42.09 42.08 41.31 42.8 40.47L47.84 42.87L51.16 37.11L46.57 33.95C46.94 32.92 47.22 31.85 47.42 30.76L52.98 30.31ZM26.98 39.99C19.8 39.99 13.98 34.17 13.98 26.99C13.98 19.81 19.8 13.99 26.98 13.99C34.16 13.99 39.98 19.81 39.98 26.99C39.98 34.17 34.16 39.99 26.98 39.99Z" />
</svg>