<svg xmlns="http://www.w3.org/2000/svg" viewBox="0 0 50 48" width="50" height="48">
	<style>
		tspan { white-space:pre }
		.shp0 { fill: #2f62f1 } 
	</style>
	<path id="magnify glass" class="shp0" d="M33.05 25.52L27.37 31.21L43.44 47.28L49.12 41.59L33.05 25.52ZM19.83 8.95C26.29 8.95 31.55 14.2 31.55 20.66C31.55 27.13 26.29 32.38 19.83 32.38C13.37 32.38 8.12 27.12 8.12 20.66C8.12 14.2 13.37 8.95 19.83 8.95M19.83 0.91C8.92 0.91 0.08 9.75 0.08 20.66C0.08 31.58 8.92 40.42 19.83 40.42C30.74 40.42 39.59 31.58 39.59 20.66C39.58 9.75 30.74 0.91 19.83 0.91L19.83 0.91Z" />
</svg>