<svg xmlns="http://www.w3.org/2000/svg" width="282.875" height="36" viewBox="0 0 282.875 36">
  <metadata><?xpacket begin="﻿" id="W5M0MpCehiHzreSzNTczkc9d"?>
<x:xmpmeta xmlns:x="adobe:ns:meta/" x:xmptk="Adobe XMP Core 5.6-c142 79.160924, 2017/07/13-01:06:39        ">
   <rdf:RDF xmlns:rdf="http://www.w3.org/1999/02/22-rdf-syntax-ns#">
      <rdf:Description rdf:about=""/>
   </rdf:RDF>
</x:xmpmeta>
                                                                                                    
                                                                                                    
                                                                                                    
                                                                                                    
                                                                                                    
                                                                                                    
                                                                                                    
                                                                                                    
                                                                                                    
                                                                                                    
                                                                                                    
                                                                                                    
                                                                                                    
                                                                                                    
                                                                                                    
                                                                                                    
                                                                                                    
                                                                                                    
                                                                                                    
                                                                                                    
                           
<?xpacket end="w"?></metadata>
<defs>
    <style>
      .cls-1 {
        fill: #fff;
        fill-rule: evenodd;
      }
    </style>
  </defs>
  <path id="Web_Designer_NINJA" data-name="Web Designer NINJA" class="cls-1" d="M165.707,20.161h-3.164L158.5,36a52.576,52.576,0,0,0-1.265,6.082,48.068,48.068,0,0,0-1.424-6.152l-4.834-15.768h-3.164l-4.606,15.627a43.633,43.633,0,0,0-1.406,6.293,58.973,58.973,0,0,0-1.231-6.047l-4.06-15.873h-3.164l6.838,25.7h2.953l5.027-17.1a39.977,39.977,0,0,0,1.231-5.08,16.539,16.539,0,0,0,.474,2.092q0.458,1.74.826,2.883l5.186,17.209h2.953Zm13.256,25.761a15.442,15.442,0,0,0,2.927-.958v-2.6a15.52,15.52,0,0,1-6.153,1.3,5.927,5.927,0,0,1-4.579-1.758,7.638,7.638,0,0,1-1.714-5.15h13.272V34.909a9.126,9.126,0,0,0-2.11-6.284,7.264,7.264,0,0,0-5.73-2.382,7.619,7.619,0,0,0-6.161,2.742,11.166,11.166,0,0,0-2.294,7.4,10.069,10.069,0,0,0,2.47,7.225,8.849,8.849,0,0,0,6.741,2.6A16.436,16.436,0,0,0,178.963,45.921Zm-0.607-15.768a6.418,6.418,0,0,1,1.231,4.228H169.515a6.962,6.962,0,0,1,1.626-4.184,4.763,4.763,0,0,1,3.7-1.512A4.33,4.33,0,0,1,178.356,30.154Zm10.452-.993h-0.14q0.139-1.775.14-4.008V18.508H185.89V45.86h2.092l0.615-2.479h0.211a6.463,6.463,0,0,0,2.611,2.136,8.334,8.334,0,0,0,3.436.694,7.132,7.132,0,0,0,5.88-2.628q2.118-2.628,2.118-7.374t-2.1-7.339a7.165,7.165,0,0,0-5.9-2.593,6.928,6.928,0,0,0-6.047,2.883h0Zm9.7,1.406a9.68,9.68,0,0,1,1.319,5.607,10.072,10.072,0,0,1-1.319,5.634,4.5,4.5,0,0,1-4.007,1.96,5.146,5.146,0,0,1-4.342-1.749q-1.355-1.749-1.354-5.809t1.319-5.774a5.094,5.094,0,0,1,4.306-1.714A4.671,4.671,0,0,1,198.511,30.567Zm32.822-7.084q-3.321-3.322-9.316-3.322h-7.875v25.7h7.119q6.486,0,9.94-3.366t3.455-9.73Q234.656,26.805,231.333,23.483ZM228.8,40.648q-2.69,2.628-8.033,2.628H217.13V22.745h4.342q4.974,0,7.5,2.549t2.523,7.576Q231.492,38.02,228.8,40.648Zm20.814,5.273a15.419,15.419,0,0,0,2.927-.958v-2.6a15.512,15.512,0,0,1-6.152,1.3,5.925,5.925,0,0,1-4.579-1.758,7.633,7.633,0,0,1-1.714-5.15h13.271V34.909a9.13,9.13,0,0,0-2.109-6.284,7.267,7.267,0,0,0-5.731-2.382,7.621,7.621,0,0,0-6.161,2.742,11.172,11.172,0,0,0-2.294,7.4,10.069,10.069,0,0,0,2.47,7.225,8.851,8.851,0,0,0,6.741,2.6A16.436,16.436,0,0,0,249.616,45.921ZM249.01,30.154a6.418,6.418,0,0,1,1.23,4.228H240.168a6.968,6.968,0,0,1,1.626-4.184,4.765,4.765,0,0,1,3.7-1.512A4.331,4.331,0,0,1,249.01,30.154Zm18.758,7.269a12.615,12.615,0,0,0-4.632-2.514,28.466,28.466,0,0,1-3.375-1.424,3.907,3.907,0,0,1-1.275-1.037,2.187,2.187,0,0,1-.395-1.318,2.011,2.011,0,0,1,1.054-1.793,6.051,6.051,0,0,1,3.129-.65,13.956,13.956,0,0,1,5.256,1.2l1.037-2.373a15.375,15.375,0,0,0-6.082-1.266,8.932,8.932,0,0,0-5.256,1.362,4.323,4.323,0,0,0-1.916,3.718,4.425,4.425,0,0,0,.554,2.268,5.219,5.219,0,0,0,1.688,1.7,20.588,20.588,0,0,0,3.823,1.749,15.381,15.381,0,0,1,3.806,1.89,2.512,2.512,0,0,1-.255,4.148,6.959,6.959,0,0,1-3.516.729,12.425,12.425,0,0,1-3.067-.4,14.442,14.442,0,0,1-2.98-1.107V45a12.234,12.234,0,0,0,5.977,1.213,9.419,9.419,0,0,0,5.625-1.459,4.826,4.826,0,0,0,2-4.148A4.436,4.436,0,0,0,267.768,37.422Zm7.068-10.828h-2.918V45.86h2.918V26.594Zm-2.672-3.753a1.684,1.684,0,0,0,1.23.483,1.7,1.7,0,0,0,1.213-.483,1.932,1.932,0,0,0,.51-1.468,1.9,1.9,0,0,0-.51-1.459,1.822,1.822,0,0,0-2.443-.009,1.939,1.939,0,0,0-.492,1.468A1.974,1.974,0,0,0,272.164,22.841Zm16.165,3.753a9.784,9.784,0,0,0-2.725-.352,7.753,7.753,0,0,0-5.379,1.714,6.236,6.236,0,0,0-1.9,4.878,6.147,6.147,0,0,0,.94,3.375A5.2,5.2,0,0,0,281.7,38.3a5.91,5.91,0,0,0-1.776,1.529,3.1,3.1,0,0,0-.562,1.846,2.744,2.744,0,0,0,.5,1.635,3.051,3.051,0,0,0,1.239,1.037,5.728,5.728,0,0,0-3.164,1.74,4.461,4.461,0,0,0-1.125,3.041,4.539,4.539,0,0,0,2.048,3.973,10.229,10.229,0,0,0,5.827,1.406q4.921,0,7.488-1.679a5.471,5.471,0,0,0,2.567-4.878,4.581,4.581,0,0,0-1.679-3.832,7.637,7.637,0,0,0-4.808-1.318h-3.41a4.748,4.748,0,0,1-2.232-.378,1.259,1.259,0,0,1-.651-1.169,2.872,2.872,0,0,1,1.864-2.478,8.82,8.82,0,0,0,1.617.141,7.8,7.8,0,0,0,5.308-1.687,5.7,5.7,0,0,0,1.934-4.518,6.268,6.268,0,0,0-1.266-3.85l3.569-.422V26.594h-6.662ZM280.735,46.37a4.606,4.606,0,0,1,3.094-.949h3.5a7.5,7.5,0,0,1,3.638.607,2.357,2.357,0,0,1,.967,2.171,3.365,3.365,0,0,1-1.766,2.98,10.551,10.551,0,0,1-5.441,1.1,7.277,7.277,0,0,1-3.779-.809,2.615,2.615,0,0,1-1.319-2.373A3.393,3.393,0,0,1,280.735,46.37Zm1.582-16.892a4.281,4.281,0,0,1,3.164-1.108q4.324,0,4.324,4.342,0,4.149-4.271,4.148a4.562,4.562,0,0,1-3.182-1.037,3.921,3.921,0,0,1-1.142-3.059A4.461,4.461,0,0,1,282.317,29.477Zm30.93,16.383V33.291q0-3.691-1.757-5.37a7.32,7.32,0,0,0-5.239-1.679,8.168,8.168,0,0,0-3.6.782,5.957,5.957,0,0,0-2.514,2.206h-0.141l-0.474-2.637h-2.373V45.86h2.918V35.752q0-3.761,1.406-5.4a5.537,5.537,0,0,1,4.43-1.635,4.368,4.368,0,0,1,3.357,1.16,5.027,5.027,0,0,1,1.072,3.516V45.86h2.918Zm15.664,0.061a15.419,15.419,0,0,0,2.927-.958v-2.6a15.512,15.512,0,0,1-6.152,1.3,5.925,5.925,0,0,1-4.579-1.758,7.633,7.633,0,0,1-1.714-5.15h13.271V34.909a9.13,9.13,0,0,0-2.109-6.284,7.267,7.267,0,0,0-5.731-2.382,7.621,7.621,0,0,0-6.161,2.742,11.172,11.172,0,0,0-2.294,7.4,10.069,10.069,0,0,0,2.47,7.225,8.851,8.851,0,0,0,6.741,2.6A16.436,16.436,0,0,0,328.911,45.921Zm-0.606-15.768a6.418,6.418,0,0,1,1.23,4.228H319.463a6.968,6.968,0,0,1,1.626-4.184,4.765,4.765,0,0,1,3.7-1.512A4.334,4.334,0,0,1,328.305,30.154Zm13-2.892a8.46,8.46,0,0,0-2.584,2.9h-0.141l-0.334-3.568h-2.408V45.86h2.918V35.524a6.919,6.919,0,0,1,1.661-4.728,5.134,5.134,0,0,1,4-1.9,9.939,9.939,0,0,1,2.109.264l0.4-2.707a11.428,11.428,0,0,0-2.3-.211A5.815,5.815,0,0,0,341.306,27.262ZM367.413,41q0.025-1.938.026-2.913,0-5.7-1.529-5.7a0.865,0.865,0,0,0-.932,1.02,3.568,3.568,0,0,0,.176.932,9.05,9.05,0,0,1,.237.923,49.733,49.733,0,0,1,.3,6.143l0.026,1.108q0.027,0.738,0,1.116a50.015,50.015,0,0,1-4.57-4.922q-1.749-2.171-3.937-5.449a1.863,1.863,0,0,0-1.152-1.02,1.1,1.1,0,0,0-.786.334,1.007,1.007,0,0,0-.348.738q0,0.554.106,1.648t0.105,1.648q0,0.58.027,1.754t0.026,1.753q0,0.545-.035,1.63t-0.035,1.63q0,0.369-.057,1.116T355,45.6a0.919,0.919,0,0,0,.255.65,0.987,0.987,0,0,0,.765.308q0.913,0,.914-2.364,0-.738-0.031-2.2t-0.03-2.188l0.026-2,0.044-2a71.713,71.713,0,0,0,8.209,9.765,1.856,1.856,0,0,0,1.151.633,0.9,0.9,0,0,0,.941-0.888,11.532,11.532,0,0,0,.14-1.406Q367.386,42.933,367.413,41Zm9.791-6.289a0.81,0.81,0,0,0,.3-0.659,0.839,0.839,0,0,0-.782-0.94,31.963,31.963,0,0,0-4.385-.378q-1.951,0-2.664.07a0.81,0.81,0,0,0-.826.9,0.881,0.881,0,0,0,.255.651,0.859,0.859,0,0,0,.633.255l1.143-.026,1.142-.035q-0.246,3.041-.246,5.071,0,0.6.057,1.472t0.057,1.481a13.314,13.314,0,0,1-.088,1.626,15.566,15.566,0,0,1-1.889.184,0.821,0.821,0,0,0-.62.264,0.9,0.9,0,0,0-.25.642,0.881,0.881,0,0,0,.25.637,0.828,0.828,0,0,0,.62.259,13.67,13.67,0,0,0,1.744-.163,13.662,13.662,0,0,1,1.736-.163q0.492,0,1.477-.022t1.476-.022a0.828,0.828,0,0,0,.62-0.259,0.892,0.892,0,0,0,.25-0.646,0.882,0.882,0,0,0-.25-0.637,0.829,0.829,0,0,0-.62-0.259l-2.768.035q0.061-.677.061-1.5,0-.615-0.035-1.52t-0.035-1.52q0-2.329.2-4.887l1.415,0.184a10.991,10.991,0,0,0,1.415.114,0.97,0.97,0,0,0,.607-0.2h0ZM391.591,41q0.027-1.938.027-2.913,0-5.7-1.53-5.7a0.864,0.864,0,0,0-.931,1.02,3.527,3.527,0,0,0,.176.932q0.2,0.694.237,0.923a49.733,49.733,0,0,1,.3,6.143L389.9,42.5q0.027,0.738,0,1.116a49.894,49.894,0,0,1-4.57-4.922q-1.749-2.171-3.938-5.449a1.862,1.862,0,0,0-1.151-1.02,1.107,1.107,0,0,0-.787.334,1.009,1.009,0,0,0-.347.738q0,0.554.106,1.648t0.1,1.648q0,0.58.026,1.754t0.027,1.753q0,0.545-.035,1.63t-0.036,1.63q0,0.369-.057,1.116T379.181,45.6a0.919,0.919,0,0,0,.255.65,0.986,0.986,0,0,0,.765.308q0.913,0,.914-2.364,0-.738-0.031-2.2T381.053,39.8l0.027-2,0.044-2a71.64,71.64,0,0,0,8.209,9.765,1.856,1.856,0,0,0,1.151.633,0.9,0.9,0,0,0,.94-0.888,11.385,11.385,0,0,0,.141-1.406Q391.565,42.933,391.591,41Zm11.927-6.807a0.923,0.923,0,0,0,.237-0.624q0-1.02-2-1.019-0.553,0-1.656.066t-1.657.066q-0.289,0-.879-0.026c-0.393-.018-0.688-0.026-0.888-0.026q-1.221,0-1.221.905a0.872,0.872,0,0,0,.263.668,0.919,0.919,0,0,0,.651.246q0.351,0,1.041.022t1.033,0.022l0.536-.009q0.043,0.7.044,0.949,0,3.164-.132,5.256-0.281,4.421-1,4.421A3.35,3.35,0,0,1,396,44.418a1.933,1.933,0,0,1-1.037-1.45,0.871,0.871,0,0,0-.887-1.063,0.88,0.88,0,0,0-.888,1.081,3.5,3.5,0,0,0,1.661,2.821,5.083,5.083,0,0,0,3.032,1.107q1.45,0,2.031-1.969a37.271,37.271,0,0,0,.87-9.519l-0.044-1.046q0.579-.026,1.01-0.026a3.745,3.745,0,0,1,.594.066,3.713,3.713,0,0,0,.54.066,0.8,0.8,0,0,0,.633-0.3h0Zm12.428,11.681a0.833,0.833,0,0,0,.272-0.633,3.66,3.66,0,0,0-.255-0.949l-0.5-1.389-1.309-6.109L413.6,33.836a1.036,1.036,0,0,0-.949-0.967q-0.51,0-2.593,3.331-1.529,2.443-2.531,4.324a0.925,0.925,0,0,0-.861.914,0.938,0.938,0,0,0,.149.527,15.908,15.908,0,0,0-1.327,3.208,0.823,0.823,0,0,0,.277.633,0.9,0.9,0,0,0,.628.255,0.855,0.855,0,0,0,.765-0.492q1.064-2.215,1.5-3.366L411,41.72q1.449-.316,2.346-0.439,0.344,1.977.572,2.769,0.6,2.074,1.406,2.074A0.889,0.889,0,0,0,415.946,45.869Zm-3.015-6.4q-2.161.387-3.225,0.659l2.513-4.052Z" transform="translate(-133.344 -18.5)"/>
</svg>
